<?xml version="1.0" encoding="iso-8859-1"?>
<!-- Generator: Adobe Illustrator 19.0.0, SVG Export Plug-In . SVG Version: 6.00 Build 0)  -->
<svg version="1.1" id="Capa_1" xmlns="http://www.w3.org/2000/svg" xmlns:xlink="http://www.w3.org/1999/xlink" x="0px" y="0px"
	 viewBox="0 0 512 512" style="enable-background:new 0 0 512 512;" xml:space="preserve">
<path style="fill:#70B5E8;" d="M446.671,504.5H64.179c-31.62,0-57.253-25.634-57.253-57.253V64.754
	C6.925,33.134,32.559,7.5,64.179,7.5H446.67c31.62,0,57.253,25.634,57.253,57.253v382.491
	C503.925,478.866,478.291,504.5,446.671,504.5z"/>
<path style="fill:#52A5D8;" d="M36.927,447.246V64.754c0-31.62,25.634-57.253,57.253-57.253H64.179
	C32.558,7.5,6.925,33.134,6.925,64.754v382.491c0,31.62,25.634,57.253,57.253,57.253h30.002
	C62.561,504.5,36.927,478.866,36.927,447.246z"/>
<path style="fill:#666666;" d="M446.67,7.5H64.179c-31.62,0-57.253,25.634-57.253,57.253v53.376h496.999V64.754
	C503.925,33.134,478.291,7.5,446.67,7.5z"/>
<path style="fill:#4F4D4D;" d="M7.998,53.719c-0.501,2.566-0.836,5.191-0.982,7.868c-0.006,0.099-0.014,0.198-0.019,0.297
	c-0.047,0.951-0.072,1.907-0.072,2.87v53.376h30.002V64.754c0-31.62,25.634-57.253,57.253-57.253H64.179
	c-20.751,0-38.923,11.039-48.965,27.566c-1.913,3.147-3.53,6.494-4.814,10.003c-0.903,2.466-1.631,5.015-2.191,7.627
	C8.135,53.036,8.065,53.377,7.998,53.719z"/>
<path style="fill:#EFEFEF;" d="M339.379,209.495l-24.606-24.605c-7.988-7.989-18.825-12.478-30.123-12.478
	c-6.331,0-108.962-0.193-102.071,0.303c-3.697,0.988-6.424,4.352-6.424,8.361c0,24.011,0,145.873,0,169.938
	c0,4.784,3.878,8.664,8.664,8.664c45.266,0,79.908,0,155.823,0c4.784,0,8.664-3.878,8.664-8.664c0-43.526,0-74.003,0-117.557
	C349.304,224.469,345.734,215.849,339.379,209.495z"/>
<path style="fill:#E6E6E6;" d="M206.7,351.012c0-24.065,0-145.927,0-169.938c0-3.885,2.565-7.581,6.09-8.68l0,0
	c-18.669,0.035-32.923,0.124-30.211,0.319c-3.697,0.988-6.424,4.352-6.424,8.361c0,24.011,0,145.873,0,169.938
	c0,4.784,3.878,8.664,8.664,8.664c10.54,0,20.502,0,30.545,0C210.578,359.676,206.7,355.798,206.7,351.012z"/>
<path style="fill:#CCCCCC;" d="M349.034,229.273c-0.926-7.444-4.294-14.418-9.656-19.778l-24.606-24.605
	c-6.646-6.646-15.266-10.86-24.479-12.091c6.346,8.683,4.725,14.088,4.875,42.827c0,5.525,3.758,10.161,8.854,11.523l0,0
	c2.048,0.488-0.776,0.467,37.156,0.417C343.361,227.712,346.214,228.147,349.034,229.273z"/>
<path style="fill:#CCC9C4;" d="M333.661,227.147L333.661,227.147c-5.095-1.362-8.854-5.997-8.854-11.523
	c-0.046-8.815,0.074-15.427,0.08-20.619l-10.116-10.116c-6.646-6.646-15.266-10.86-24.479-12.091
	c6.346,8.683,4.725,14.088,4.875,42.827c0,5.525,3.758,10.161,8.854,11.523l0,0c2.021,0.481-0.697,0.468,35.65,0.419
	C334.462,227.522,334.751,227.407,333.661,227.147z"/>
<path style="fill:#86D1F2;" d="M309.778,391.519c-5.272-5.273-13.821-5.273-19.093,0l-13.026,13.027v-72.269
	c0-7.456-6.044-13.501-13.501-13.501s-13.501,6.044-13.501,13.501v72.268l-13.025-13.025c-5.271-5.273-13.821-5.273-19.093,0
	c-5.272,5.272-5.272,13.821,0,19.093l28.736,28.736c4.501,4.501,10.498,6.98,16.883,6.98c6.386,0,12.383-2.479,16.884-6.98
	l28.736-28.736C315.051,405.34,315.051,396.791,309.778,391.519z"/>
<path style="fill:#A2DAF9;" d="M292.032,390.356l-10.991,10.991c-0.59,0.59-1.208,1.144-1.847,1.664l-1.536,1.536v-0.39
	c-3.94,2.709-8.605,4.171-13.501,4.171s-9.561-1.462-13.501-4.172v0.389l-1.533-1.533c-0.64-0.52-1.258-1.074-1.849-1.665
	l-10.991-10.991c-5.293-4.062-12.901-3.683-17.746,1.163c-5.272,5.272-5.272,13.821,0,19.093l28.736,28.736
	c4.501,4.501,10.498,6.98,16.883,6.98c6.386,0,12.383-2.479,16.884-6.98l28.736-28.736c5.272-5.272,5.272-13.821,0-19.093
	C304.932,386.672,297.325,386.293,292.032,390.356z"/>
<path d="M84.89,70.127c0,4.143,3.357,7.5,7.5,7.5h0.5c4.143,0,7.5-3.357,7.5-7.5C100.391,60.131,84.89,60.114,84.89,70.127z"/>
<path d="M117.892,77.628h0.5c4.143,0,7.5-3.357,7.5-7.5c0-9.997-15.501-10.014-15.501,0
	C110.392,74.27,113.749,77.628,117.892,77.628z"/>
<path d="M66.889,62.627c-4.143,0-7.5,3.357-7.5,7.5c0,4.143,3.357,7.5,7.5,7.5h0.5c4.143,0,7.5-3.357,7.5-7.5
	c0-4.143-3.357-7.5-7.5-7.5H66.889z"/>
<path d="M431.392,77.628c4.143,0,7.5-3.357,7.5-7.5c0-4.143-3.357-7.5-7.5-7.5H160.933c-4.143,0-7.5,3.357-7.5,7.5
	c0,4.143,3.357,7.5,7.5,7.5H431.392z"/>
<path d="M447.246,0H133.763c-4.143,0-7.5,3.357-7.5,7.5s3.357,7.5,7.5,7.5h313.483c27.435,0,49.753,22.318,49.753,49.753v45.876
	H15.001V64.754c0-27.435,22.318-49.753,49.753-49.753h34.007c4.143,0,7.5-3.357,7.5-7.5s-3.357-7.5-7.5-7.5H64.754
	C29.049,0,0,29.049,0,64.754v382.492C0,482.951,29.049,512,64.754,512h267.623c4.143,0,7.5-3.357,7.5-7.5s-3.357-7.5-7.5-7.5H64.754
	c-27.435,0-49.753-22.318-49.753-49.753V125.631h481.998v321.615c0,27.435-22.318,49.753-49.753,49.753H367.38
	c-4.142,0-7.5,3.357-7.5,7.5s3.358,7.5,7.5,7.5h79.866C482.951,512,512,482.951,512,447.246V64.754C512,29.049,482.951,0,447.246,0z
	"/>
<path d="M317.466,176.675c-8.935-7.539-20.218-11.765-32.242-11.765c-106.016,0.028-100.363-0.122-102.364,0.21
	c-7.839,1.236-13.631,8.025-13.631,15.954v169.938c0,8.913,7.25,16.164,16.163,16.164h58.34v19.26l-0.221-0.221
	c-3.966-3.967-9.241-6.151-14.851-6.151c-18.541,0-28.117,22.582-14.851,35.852l28.736,28.736c12.246,12.246,32.128,12.247,44.375,0
	l28.736-28.736c13.204-13.207,3.752-35.852-14.851-35.852c-5.609,0-10.885,2.185-14.851,6.15l-0.222,0.223v-19.261h55.481
	c8.913,0,16.164-7.251,16.164-16.164v-61.098c0-4.143-3.357-7.5-7.5-7.5c-4.142,0-7.5,3.357-7.5,7.5
	c-0.52,62.076,1.09,62.261-1.163,62.261h-55.481v-19.899c0-11.58-9.422-21.001-21.001-21.001c-11.58,0-21.001,9.422-21.001,21.001
	v19.899c-59.076-0.518-59.502,1.095-59.502-1.163c0.362-180.482-0.98-170.929,1.162-171.101
	c39.563,0.006,99.648-0.016,101.019,0.029c2.52,5.365,1.785,6.685,1.831,35.684c0,9.158,6.604,17.917,17.087,19.289
	c3.961,0.47,34.385-0.073,37.049,0.245v19.754c0,4.143,3.358,7.5,7.5,7.5c4.143,0,7.5-3.357,7.5-7.5
	c-1.169-15.117,3.889-30.68-8.695-46.828C345.675,204.206,318.984,177.947,317.466,176.675z M245.928,409.848
	c4.712,4.708,12.805,1.372,12.805-5.304v-44.868v-27.4c0-3.309,2.691-6,6-6c3.309,0,6,2.691,6,6v27.4v44.869
	c0,6.649,8.072,10.034,12.805,5.304l13.026-13.027c3.798-3.798,10.243-1.047,10.243,4.243c0,4.375-1.575,3.223-30.494,32.979
	c-6.383,6.385-16.776,6.384-23.158,0l-28.736-28.736c-3.802-3.799-1.046-10.243,4.242-10.243
	C232.869,395.065,233.363,397.991,245.928,409.848z M306.971,219.992c-2.19-0.36-3.728-2.24-3.728-4.368
	c-0.026-30.449,0.083-28.575-0.146-30.806c5.39,3.18,5.754,4.184,31.615,30.045c1.589,1.6,2.919,3.352,4.003,5.199
	C304.926,220.052,307.793,220.103,306.971,219.992z"/>
<g>
</g>
<g>
</g>
<g>
</g>
<g>
</g>
<g>
</g>
<g>
</g>
<g>
</g>
<g>
</g>
<g>
</g>
<g>
</g>
<g>
</g>
<g>
</g>
<g>
</g>
<g>
</g>
<g>
</g>
</svg>
