<svg id="Capa_1" enable-background="new 0 0 512 512" height="512" viewBox="0 0 512 512" width="512" xmlns="http://www.w3.org/2000/svg"><g><g><path d="m452 75v80c0 8.284 6.716 15 15 15s15-6.716 15-15v-80z" fill="#ffc178"/><path d="m397 210h-200c-8.284 0-15-6.716-15-15v-116c0-8.284 6.716-15 15-15h200c8.284 0 15 6.716 15 15v116c0 8.284-6.716 15-15 15z" fill="#453d81"/><path d="m397 64h-100v146h100c8.284 0 15-6.716 15-15v-116c0-8.284-6.716-15-15-15z" fill="#2e2654"/><path d="m297 150c-1.688 0-3.377-.285-4.992-.855l-170-60c-5.997-2.117-10.008-7.786-10.008-14.145s4.011-12.028 10.008-14.145l170-60c3.23-1.141 6.754-1.141 9.984 0l170 60c5.997 2.117 10.008 7.786 10.008 14.145s-4.011 12.028-10.008 14.145l-170 60c-1.615.57-3.304.855-4.992.855z" fill="#6b61b1"/><path d="m301.992 149.145 170-60c5.997-2.117 10.008-7.786 10.008-14.145s-4.011-12.028-10.008-14.145l-170-60c-1.615-.57-3.304-.855-4.992-.855v150c1.688 0 3.377-.285 4.992-.855z" fill="#453d81"/></g><g><g><path d="m485.06 281.449c-16.364-5.673-33.867-.546-44.586 13.059l-67.239 85.342c-8.588 10.899-21.471 17.15-35.347 17.15h-6.388c23.188 0 42.098-18.666 42.494-41.761.407-23.778-19.466-43.239-43.248-43.239h-105.978c-35.34-30.066-87.005-32.549-125.188-5.276l-17.58 12.557v162.719h115 157.307c34.842 0 67.322-17.212 86.885-46.042l63.897-94.164c4.521-6.662 6.911-14.44 6.911-22.494 0-17.321-10.575-32.179-26.94-37.851z" fill="#ffd5b2"/><path d="m485.06 281.449c-16.364-5.673-33.867-.546-44.586 13.059l-67.239 85.342c-8.588 10.899-21.471 17.15-35.347 17.15h-6.388c23.188 0 42.098-18.666 42.494-41.761.407-23.778-19.466-43.239-43.248-43.239h-74.746v170h98.307c34.842 0 67.322-17.212 86.885-46.042l63.897-94.164c4.521-6.662 6.911-14.44 6.911-22.494 0-17.321-10.575-32.179-26.94-37.851z" fill="#fac394"/><path d="m204 412c0 8.284 6.716 15 15 15h112.5c39.977 0 72.5-32.523 72.5-72.5 0-4.208-.381-8.325-1.072-12.338l-29.694 37.688c-8.588 10.899-21.471 17.15-35.347 17.15h-6.387-112.5c-8.284 0-15 6.716-15 15z" fill="#fac394"/><path d="m373.234 379.85c-8.588 10.899-21.471 17.15-35.347 17.15h-6.387-75.5v30h75.5c39.977 0 72.5-32.523 72.5-72.5 0-4.208-.381-8.325-1.072-12.338z" fill="#f0b47f"/></g><path d="m75 512h-60c-8.284 0-15-6.716-15-15v-200c0-8.284 6.716-15 15-15h60c8.284 0 15 6.716 15 15v200c0 8.284-6.716 15-15 15z" fill="#6ba7ff"/><path d="m75 512h-60c-8.284 0-15-6.716-15-15v-100h90v100c0 8.284-6.716 15-15 15z" fill="#347adf"/></g></g></svg>