<svg id="Layer_1" enable-background="new 0 0 512 512" height="512" viewBox="0 0 512 512" width="512" xmlns="http://www.w3.org/2000/svg"><g><g><g><g><path d="m474.5 392.962h-437c-16.569 0-30-13.431-30-30v-282.417c0-16.569 13.431-30 30-30h437c16.569 0 30 13.431 30 30v282.417c0 16.568-13.431 30-30 30z" fill="#506d90"/><path d="m474.5 50.545h-30c16.569 0 30 13.431 30 30v282.417c0 16.569-13.431 30-30 30h30c16.569 0 30-13.431 30-30v-282.417c0-16.569-13.431-30-30-30z" fill="#455f7e"/><path d="m37.5 343.962v-259.417c0-2.209 1.791-4 4-4h429c2.209 0 4 1.791 4 4v259.417c0 2.209-1.791 4-4 4h-429c-2.209 0-4-1.791-4-4z" fill="#ecf5ff"/><path d="m470.5 80.545h-30c2.209 0 4 1.791 4 4v259.417c0 2.209-1.791 4-4 4h30c2.209 0 4-1.791 4-4v-259.417c0-2.21-1.791-4-4-4z" fill="#dbeafd"/><path d="m305.543 504.5h-99.086l15-111.538h69.086z" fill="#455f7e"/><path d="m290.543 392.962h-30l15 111.538h30z" fill="#405972"/><path d="m320.895 456.277 10.563 38.085c1.414 5.097-2.42 10.138-7.709 10.138h-135.497c-5.289 0-9.123-5.041-7.709-10.138l10.563-38.085c.961-3.464 4.114-5.862 7.709-5.862h114.372c3.594 0 6.747 2.397 7.708 5.862z" fill="#506d90"/><path d="m331.458 494.362-10.563-38.085c-.961-3.464-4.114-5.862-7.709-5.862h-30c3.595 0 6.748 2.398 7.709 5.862l10.563 38.085c1.414 5.097-2.42 10.138-7.709 10.138h30c5.289 0 9.122-5.041 7.709-10.138z" fill="#455f7e"/></g><path d="m97.01 67.5h317.98v280.462h-317.98z" fill="#fff"/><path d="m402.99 7.5h-30c6.627 0 12 5.373 12 12v328.462h30v-328.462c0-6.627-5.373-12-12-12z" fill="#efeaf4"/><path d="m402.99 7.5h-293.98c-6.627 0-12 5.373-12 12v48h317.98v-48c0-6.627-5.373-12-12-12z" fill="#455f7e"/><path d="m402.99 7.5h-30c6.627 0 12 5.373 12 12v48h30v-48c0-6.627-5.373-12-12-12z" fill="#405972"/><g><path d="m341.099 347.962v-51.863c0-17.088-10.456-32.436-26.359-38.69l-20.263-7.969c-8.011-3.151-13.279-10.882-13.279-19.491v-16.561h-50.399v16.561c0 8.609-5.268 16.34-13.279 19.491l-20.263 7.969c-15.903 6.254-26.359 21.602-26.359 38.69v51.863" fill="#dd8793"/><g><path d="m314.741 257.408-20.262-7.969c-8.011-3.151-13.279-10.883-13.279-19.491v-16.561h-30v31.561c0 8.609 5.268 16.341 13.279 19.491l20.262 7.969c15.903 6.254 26.359 21.602 26.359 38.69v36.863h30v-51.863c-.001-17.088-10.457-32.436-26.359-38.69z" fill="#d5707e"/></g><path d="m256 264.956c14.373 0 27.211-6.569 35.679-16.868-6.415-3.699-25.479-10.58-25.479-18.14v-16.561h-35.399v16.561c0 7.56-4.064 14.441-10.479 18.14 8.467 10.299 21.305 16.868 35.678 16.868z" fill="#f2ccbc"/><path d="m264.051 264.253c11.068-1.947 20.778-7.834 27.627-16.164-5.936-3.452-10.505-10.05-10.479-18.14v-16.561h-30v31.561c0 8.452 5.085 16.048 12.852 19.304z" fill="#ecad9a"/><path d="m257.116 220.038c-1.585 0-4.268 5.078-5.811 4.922-23.154-2.351-41.223-21.906-41.223-45.681v-19.92l15-36.082c0-13.268 10.756-9.024 24.024-9.024h28.789c13.268 0 9.024-4.244 9.024 9.024l15 36.082v19.92c0 16.053-8.238 30.183-20.717 38.391-7.236 4.758-24.086 2.368-24.086 2.368z" fill="#f2ccbc"/><g><path d="m286.918 123.276c0-13.268 4.244-9.024-9.024-9.024l-5.976 30.105v34.92c.208 2.428 1.118 15.825-8.712 26.907-12.471 14.059-30.961 11.691-32.405 11.481 3.576 2.314 9.78 5.677 18.142 6.986 0 0 3.606.545 7.058.545 25.36 0 45.918-20.558 45.918-45.918v-19.92z" fill="#ecad9a"/></g><path d="m301.918 123.276c0-13.268-10.756-24.024-24.024-24.024h-43.789c-13.268 0-24.024 10.756-24.024 24.024v36.082c8.466 1.286 23.918 2.395 41.319-3.828 7.782-2.783 14.095-6.368 18.939-9.688.919-.63 2.179-.395 2.788.539 1.848 2.836 5.521 7.378 11.783 10.402 7.555 3.649 14.466 2.956 17.008 2.575z" fill="#cf9772"/><g><path d="m277.894 99.252h-30c13.268 0 24.024 10.756 24.024 24.024v22.269c.479.109.919.391 1.209.836 1.848 2.836 5.521 7.378 11.783 10.402 7.555 3.649 14.466 2.956 17.008 2.575v-36.082c0-13.268-10.756-24.024-24.024-24.024z" fill="#c88556"/></g></g></g><path d="m358.052 37.5h123.141c12.872 0 23.307 10.435 23.307 23.307v53.13c0 12.872-10.435 23.307-23.307 23.307h-69.134c-1.442 0-2.826.573-3.846 1.593l-22.495 22.495c-1.958 1.958-5.305.571-5.305-2.197v-16.452c0-3.004-2.435-5.438-5.438-5.438h-16.923c-12.872 0-23.307-10.435-23.307-23.307v-53.13c0-12.873 10.435-23.308 23.307-23.308z" fill="#f7e07f"/><g><path d="m481.193 37.5h-30c12.872 0 23.307 10.435 23.307 23.307v53.13c0 12.872-10.435 23.307-23.307 23.307h30c12.872 0 23.307-10.435 23.307-23.307v-53.13c0-12.872-10.435-23.307-23.307-23.307z" fill="#f0d16f"/></g></g><path d="m157.01 30c-4.142 0-7.5 3.358-7.5 7.5s3.358 7.5 7.5 7.5 7.5-3.358 7.5-7.5-3.358-7.5-7.5-7.5zm30 0c-4.142 0-7.5 3.358-7.5 7.5s3.358 7.5 7.5 7.5 7.5-3.358 7.5-7.5-3.358-7.5-7.5-7.5zm-60 0c-4.142 0-7.5 3.358-7.5 7.5s3.358 7.5 7.5 7.5 7.5-3.358 7.5-7.5-3.358-7.5-7.5-7.5zm354.182 0h-58.702v-10.5c0-10.752-8.748-19.5-19.5-19.5h-293.98c-10.752 0-19.5 8.748-19.5 19.5v23.54h-52.01c-20.678 0-37.5 16.822-37.5 37.5v282.42c0 20.678 16.822 37.5 37.5 37.5h175.384l-5.712 42.455h-8.357c-6.941 0-13.083 4.671-14.937 11.357l-10.562 38.085c-1.307 4.707-.359 9.637 2.597 13.525s7.454 6.118 12.339 6.118h135.496c4.885 0 9.383-2.23 12.339-6.118s3.903-8.818 2.598-13.524l-10.563-38.084c-1.854-6.688-7.995-11.359-14.937-11.359h-8.357l-5.712-42.455h175.384c20.678 0 37.5-16.822 37.5-37.5v-302.153c0-16.987-13.82-30.807-30.808-30.807zm-376.682 45h121.49c4.143 0 7.5-3.358 7.5-7.5s-3.357-7.5-7.5-7.5h-121.49v-40.5c0-2.481 2.019-4.5 4.5-4.5h293.98c2.481 0 4.5 2.019 4.5 4.5v10.5h-49.438c-16.717 0-30.355 13.385-30.786 30h-66.266c-4.143 0-7.5 3.358-7.5 7.5s3.357 7.5 7.5 7.5h66.245v38.937c0 16.987 13.819 30.807 30.807 30.807h14.861v14.391c0 4.305 2.57 8.152 6.548 9.8 3.937 1.631 8.499.763 11.562-2.299l16.468-16.468v117.062c0 4.142 3.357 7.5 7.5 7.5s7.5-3.358 7.5-7.5v-122.486h44.509v195.716h-44.51v-38.23c0-4.142-3.357-7.5-7.5-7.5s-7.5 3.358-7.5 7.5v38.229h-58.89v-44.359c0-20.313-12.214-38.24-31.113-45.669l-20.262-7.971c-5.178-2.036-8.524-6.947-8.524-12.51v-8.477c12.592-9.781 20.718-25.052 20.718-42.195v-56.002c0-17.382-14.142-31.523-31.523-31.523h-43.789c-17.382 0-31.523 14.142-31.523 31.523v56.002c0 17.142 8.126 32.414 20.718 42.195v8.477c0 5.563-3.347 10.474-8.526 12.51l-20.258 7.97c-18.901 7.43-31.115 25.357-31.115 45.67v44.36h-58.893zm191.59 237.22c-4.143 0-7.5 3.358-7.5 7.5v20.74h-65.2v-20.74c0-4.142-3.357-7.5-7.5-7.5s-7.5 3.358-7.5 7.5v20.74h-30v-44.36c0-14.104 8.479-26.551 21.605-31.71l18.449-7.258c9.991 9.799 23.381 15.325 37.545 15.325s27.554-5.526 37.545-15.325l18.451 7.258c13.124 5.159 21.604 17.606 21.604 31.71v44.36h-30v-20.74c.001-4.142-3.357-7.5-7.499-7.5zm-72.899-144.369c10.545 0 20.972-1.77 30.726-5.258 5.647-2.02 11.099-4.613 16.263-7.735 2.696 3.038 6.434 6.252 11.459 8.679 4.561 2.203 8.979 3.157 12.77 3.484v12.258c0 21.184-17.234 38.418-38.418 38.418s-38.418-17.234-38.418-38.418v-11.611c1.874.111 3.748.183 5.618.183zm-5.619-15.207v-29.368c0-9.111 7.412-16.523 16.523-16.523h43.789c9.111 0 16.523 7.413 16.523 16.523v28.659c-1.925-.281-4.058-.848-6.246-1.905-4.479-2.163-7.237-5.405-8.762-7.743-1.382-2.121-3.6-3.621-6.084-4.115-2.495-.494-5.127.046-7.228 1.484-5.367 3.68-11.162 6.645-17.223 8.813-9.856 3.524-20.561 4.936-31.292 4.175zm63.052 95.936c-6.876 5.698-15.531 8.877-24.634 8.877s-17.758-3.179-24.634-8.877c4.384-5.048 6.934-11.585 6.934-18.629v-.281c5.543 1.953 11.497 3.027 17.7 3.027s12.157-1.074 17.7-3.027v.281c0 7.044 2.55 13.581 6.934 18.629zm32.552 209.335c.224 0 .422.15.481.365v.001l10.563 38.086c.095.242-.222.661-.482.633h-135.496c-.261.027-.58-.388-.481-.634l10.563-38.087c.06-.215.258-.365.481-.365h114.371zm-90.88-15 5.712-42.455h55.963l5.712 42.455zm274.694-79.955c0 12.407-10.094 22.5-22.5 22.5h-437c-12.406 0-22.5-10.093-22.5-22.5v-282.42c0-12.407 10.094-22.5 22.5-22.5h52.01v15h-48.01c-6.341 0-11.5 5.159-11.5 11.5v259.42c0 6.341 5.159 11.5 11.5 11.5h429c6.341 0 11.5-5.159 11.5-11.5v-199.236c5.471-.142 10.592-1.71 15-4.356zm-407.49-274.92v252.42h-44.51v-252.42zm407.49 25.897c0 8.716-7.091 15.807-15.808 15.807-8.369 0-60.695 0-69.134 0-3.456 0-6.706 1.346-9.148 3.79l-14.997 14.998v-5.849c0-7.134-5.804-12.938-12.938-12.938h-16.923c-8.716 0-15.807-7.091-15.807-15.807v-53.13c0-8.716 7.091-15.807 15.807-15.807h123.141c8.716-.001 15.807 7.09 15.807 15.806zm-26.434-19.065h-101.888c-4.143 0-7.5 3.358-7.5 7.5s3.357 7.5 7.5 7.5h101.889c4.143 0 7.5-3.358 7.5-7.5s-3.358-7.5-7.501-7.5zm0-30h-101.888c-4.143 0-7.5 3.358-7.5 7.5s3.357 7.5 7.5 7.5h101.889c4.143 0 7.5-3.358 7.5-7.5s-3.358-7.5-7.501-7.5z"/></g></svg>