<?xml version="1.0" encoding="iso-8859-1"?>
<!-- Generator: Adobe Illustrator 19.0.0, SVG Export Plug-In . SVG Version: 6.00 Build 0)  -->
<svg version="1.1" id="Capa_1" xmlns="http://www.w3.org/2000/svg" xmlns:xlink="http://www.w3.org/1999/xlink" x="0px" y="0px"
	 viewBox="0 0 480 480" style="enable-background:new 0 0 480 480;" xml:space="preserve">
<polygon style="fill:#96561E;" points="8,232 8,264 32,264 32,472 64,472 64,264 416,264 416,472 448,472 448,264 472,264 472,232 
	"/>
<rect x="176" y="152" style="fill:#97DAF7;" width="128" height="80"/>
<path style="fill:#FFEBDB;" d="M350.332,182.827c-7.03-38.667-36.663-68.301-73.751-76.486C288.455,96.072,296,80.931,296,64
	c0-30.928-25.072-56-56-56s-56,25.072-56,56c0,16.931,7.545,32.072,19.42,42.341c0,0,0,0,0,0
	c-37.089,8.185-66.722,37.819-73.752,76.486L128,192l16,40h32v-80h128v80h32l16-40L350.332,182.827z"/>
<polygon style="fill:#97DAF7;" points="432,208 432,184 432,168 384,168 384,232 432,232 "/>
<path style="fill:#4B6378;" d="M104,200H24c-8.836,0-16,7.163-16,16c0,8.836,7.164,16,16,16h80V200z"/>
<g>
	<path style="fill:#97DAF7;" d="M104,168H24c-8.836,0-16,7.163-16,16c0,8.836,7.164,16,16,16h80V168z"/>
	<path style="fill:#97DAF7;" d="M120,152c0-8.837-7.164-16-16-16H24v32h80C112.836,168,120,160.836,120,152z"/>
</g>
<path style="fill:#FFEBDB;" d="M304,264H176c-17.673,0-32,14.327-32,32v32h8h9.778l-0.003-0.049l11.919,120.697
	C170.192,452.819,168,458.127,168,464v8h48v-8c0-5.873-2.192-11.181-5.694-15.352l11.919-120.697L222.222,328h35.556l-0.003-0.049
	l13.231,119.106c2.141-2.147,4.691-3.881,7.517-5.098c-2.825,1.218-5.376,2.951-7.517,5.098C266.678,451.398,264,457.386,264,464v8
	h48v-8c0-6.614-2.678-12.602-7.006-16.943c-2.141-2.147-4.692-3.88-7.517-5.098c2.826,1.217,5.376,2.95,7.517,5.098l13.231-119.106
	L318.222,328H336v-32C336,278.327,321.673,264,304,264z"/>
<path d="M472,224h-32v-8h16c4.422,0,8-3.578,8-8v-24c0-4.422-3.578-8-8-8h-16v-8c0-4.422-3.578-8-8-8h-48c-4.422,0-8,3.578-8,8v56
	h-28.183l11.612-29.031c0.555-1.398,0.711-2.922,0.438-4.406l-1.664-9.164c-6.694-36.852-32.426-66.674-67.047-79.103
	C299.182,91.602,304,78.369,304,64c0-35.289-28.711-64-64-64s-64,28.711-64,64c0,14.369,4.818,27.602,12.844,38.296
	c-34.621,12.428-60.353,42.25-67.04,79.095l-1.672,9.172c-0.273,1.484-0.117,3.008,0.438,4.406L132.183,224H112v-24v-25.474
	c9.292-3.313,16-12.11,16-22.526c0-13.234-10.766-24-24-24H24c-4.422,0-8,3.578-8,8v25.474C6.708,164.787,0,173.584,0,184
	c0,6.169,2.404,11.744,6.242,16C2.404,204.256,0,209.831,0,216c0,3.699,0.911,7.163,2.412,10.295C0.929,227.747,0,229.759,0,232v32
	c0,4.422,3.578,8,8,8h16v200c0,4.422,3.578,8,8,8h32c4.422,0,8-3.578,8-8V272h72.205c-5.077,6.706-8.205,14.96-8.205,24v24h-16
	c-4.422,0-8,3.578-8,8v152h16V336h16h8h2.529l10.887,110.221C162.002,451.31,160,457.423,160,464v8c0,4.422,3.578,8,8,8h48
	c4.422,0,8-3.578,8-8v-8c0-6.577-2.002-12.69-5.417-17.78L229.461,336h21.155l12.073,108.645C258.556,450.036,256,456.695,256,464v8
	c0,4.422,3.578,8,8,8h48c4.422,0,8-3.578,8-8v-8c0-7.305-2.555-13.965-6.689-19.356L325.367,336H336h16v144h16V328
	c0-4.422-3.578-8-8-8h-16v-24c0-9.04-3.128-17.294-8.205-24H408v200c0,4.422,3.578,8,8,8h32c4.422,0,8-3.578,8-8V272h16
	c4.422,0,8-3.578,8-8v-32C480,227.578,476.422,224,472,224z M448,192v8h-8v-8H448z M392,176h32v48h-32V176z M240,16
	c26.469,0,48,21.531,48,48s-21.531,48-48,48s-48-21.531-48-48S213.531,16,240,16z M136.281,191.164l1.266-6.906
	c6.117-33.722,31.089-60.477,64.053-69.18C212.312,123.151,225.584,128,240,128s27.688-4.849,38.4-12.922
	c32.964,8.703,57.937,35.459,64.061,69.188l1.258,6.906L330.583,224H312v-72c0-4.422-3.578-8-8-8H176c-4.422,0-8,3.578-8,8v72
	h-18.583L136.281,191.164z M296,224H184v-64h112V224z M16,216c0-4.414,3.586-8,8-8h72v16H24C19.586,224,16,220.414,16,216z M32,144
	h72c4.414,0,8,3.586,8,8s-3.586,8-8,8H32V144z M24,176h72v16H24c-4.414,0-8-3.586-8-8S19.586,176,24,176z M56,464H40V272h16V464z
	 M169.758,327.508c-0.336-6.172,1.813-12.047,6.063-16.539c8.5-8.984,23.859-8.984,32.359,0c4.25,4.492,6.398,10.367,6.086,16.195
	l-10.581,107.118C200.056,432.85,196.133,432,192,432c-4.133,0-8.057,0.85-11.686,2.282L169.758,327.508z M176,464
	c0-8.82,7.18-16,16-16s16,7.18,16,16H176z M265.758,327.508c-0.336-6.172,1.813-12.047,6.063-16.539
	c8.5-8.984,23.859-8.984,32.359,0c4.25,4.492,6.398,10.367,6.094,16.102l-11.869,106.813C295.125,432.746,291.662,432,288,432
	c-3.663,0-7.126,0.747-10.406,1.884L265.758,327.508z M272,464c0-8.82,7.18-16,16-16s16,7.18,16,16H272z M328,296v24h-2.281
	c-1.218-7.459-4.581-14.388-9.922-20.031C308.492,292.25,298.625,288,288,288s-20.492,4.25-27.797,11.969
	c-5.299,5.599-8.635,12.472-9.866,20.031h-20.619c-1.218-7.459-4.581-14.388-9.922-20.031C212.492,292.25,202.625,288,192,288
	s-20.492,4.25-27.797,11.969c-5.308,5.609-8.649,12.493-9.878,20.031H152v-24c0-13.234,10.766-24,24-24h128
	C317.234,272,328,282.766,328,296z M440,464h-16V272h16V464z M464,256H304H176H16v-16h8h80h360V256z"/>
<rect x="216" y="184" width="48" height="16"/>
<rect x="408" y="120" width="16" height="24"/>
<rect x="384" y="104" width="16" height="32"/>
<g>
</g>
<g>
</g>
<g>
</g>
<g>
</g>
<g>
</g>
<g>
</g>
<g>
</g>
<g>
</g>
<g>
</g>
<g>
</g>
<g>
</g>
<g>
</g>
<g>
</g>
<g>
</g>
<g>
</g>
</svg>
